<svg xmlns="http://www.w3.org/2000/svg" version="1.1" xmlns:xlink="http://www.w3.org/1999/xlink" xmlns:svgjs="http://svgjs.dev/svgjs" width="1000" height="700" preserveAspectRatio="none" viewBox="0 0 1000 700"><g mask="url(&quot;#SvgjsMask7173&quot;)" fill="none"><rect width="1000" height="700" x="0" y="0" fill="rgba(0, 0, 0, 1)"></rect><use xlink:href="#SvgjsG7188" transform="translate(0, 0)" fill="rgba(63, 63, 63, 1)"></use><use xlink:href="#SvgjsG7188" transform="translate(0, 375)" fill="rgba(63, 63, 63, 1)"></use><use xlink:href="#SvgjsG7188" transform="translate(375, 0)" fill="rgba(63, 63, 63, 1)"></use><use xlink:href="#SvgjsG7188" transform="translate(375, 375)" fill="rgba(63, 63, 63, 1)"></use><use xlink:href="#SvgjsG7188" transform="translate(750, 0)" fill="rgba(63, 63, 63, 1)"></use><use xlink:href="#SvgjsG7188" transform="translate(750, 375)" fill="rgba(63, 63, 63, 1)"></use></g><defs><mask id="SvgjsMask7173"><rect width="1000" height="700" fill="#ffffff"></rect></mask><g id="SvgjsG7182"><path d="M4.35 14.54C0.56 12.61-0.96 7.95 0.98 4.16 2.91 0.37 7.56-1.14 11.35 0.79S16.66 7.38 14.73 11.17c-1.93 3.79-6.59 5.3-10.38 3.37z m0.86-1.7c2.85 1.45 6.36 0.32 7.82-2.54 1.45-2.85 0.31-6.36-2.54-7.81-2.85-1.45-6.36-0.31-7.81 2.54-1.46 2.86-0.32 6.36 2.53 7.81z"></path><path d="M7.42 8.59a0.57 0.57 0 0 1-0.47-0.29 0.58 0.58 0 0 1-0.05-0.47L8.93 3.83a0.58 0.58 0 0 1 1.03 0.53l-1.58 3.09 3.29 0.11a0.58 0.58 0 0 1 0.56 0.59c-0.01 0.32-0.28 0.57-0.59 0.57l-4.22-0.13z"></path></g><g id="SvgjsG7179"><path d="M8.99 14.15L1.76 10.47 6.57 1.03l7.23 3.68-4.81 9.44z m-4.31-0.47a0.46 0.46 0 1 1 0.41-0.81 0.46 0.46 0 0 1-0.41 0.81zM10.09 1.53l1.24 0.63c0.17 0.09 0.01 0.41-0.16 0.32l-1.25-0.63c-0.18-0.09-0.02-0.41 0.16-0.32zM14.56 2.82L7.65-0.7C7.36-0.85 6.96-0.66 6.76-0.27L0.82 11.39c-0.19 0.38-0.12 0.82 0.19 0.96l6.9 3.52c0.3 0.15 0.7-0.04 0.89-0.42L14.74 3.79c0.2-0.38 0.11-0.82-0.18-0.97z" fill-rule="evenodd"></path></g><g id="SvgjsG7185"><path d="M12.59 16.1l0 0s-1.32-4.06-1.32-4.07a0.6 0.6 0 0 0-0.77-0.38L8.63 12.26c-0.73 0.24-1.13-0.51-1.83-2.09-0.46-1.05-0.93-2.37-1.22-3.75-0.2-0.97-0.33-1.93 0.44-2.18 0 0 1.88-0.61 1.88-0.61l0 0c0.34-0.11 0.49-0.46 0.39-0.77l0 0L6.93-1.33c-0.11-0.32-0.45-0.49-0.77-0.38L4.28-1.1C3.44-0.72 0.73 1.77 3.07 9.29c2.47 7.92 6.38 8.49 7.25 8.18 0 0 1.88-0.6 1.88-0.6l0 0c0.34-0.11 0.49-0.46 0.39-0.77z"></path></g><g id="SvgjsG7176"><path d="M10.57 6.07c1.13 0.58 1.8 1.7 1.87 2.9l3.21 1.64 0.88-1.74c0.33-0.65 0.08-1.44-0.56-1.76L4.03 1.02C3.39 0.7 2.61 0.96 2.28 1.61l-0.88 1.72 5.72 2.92c1.01-0.64 2.31-0.76 3.45-0.18M6.15 1.41l-1.06-0.54-0.32 0.33 1.27 0.64 0.11-0.43zM15.83 6.09l-1.41-0.73L13.86 5.83 15.76 6.8l0.07-0.71zM10.78 4l-1.22-0.62L9.87 2.79l1.21 0.62-0.3 0.59zM12.32 3.74l-3.44-1.75-1.24 0.68 4.8 2.45L12.32 3.74z m0.13 5.62c-0.02 0.49-0.14 0.97-0.37 1.44-0.88 1.74-3 2.44-4.72 1.56-1.72-0.88-2.39-3-1.51-4.73 0.24-0.46 0.56-0.84 0.94-1.15L1.24 3.65-1.18 8.39c-0.33 0.64-0.08 1.43 0.56 1.75l11.94 6.09c0.64 0.33 1.42 0.07 1.76-0.58L15.49 10.91 12.45 9.36z"></path><path d="M11.19 9.05a1.72 1.72 0 0 0-0.05-0.34c-0.14-0.63-0.53-1.19-1.15-1.51-0.61-0.31-1.3-0.3-1.89-0.05-0.11 0.05-0.21 0.1-0.31 0.16-0.34 0.21-0.63 0.5-0.82 0.89-0.57 1.11-0.13 2.47 0.97 3.03 1.1 0.56 2.45 0.11 3.01-1 0.19-0.38 0.26-0.79 0.24-1.19"></path></g><g id="SvgjsG7183"><path d="M0.34 11.57l-1.05-0.54C-1.44 10.66-1.87 9.76-1.4 8.83c0 0 3.39-6.66 3.4-6.68 0.42-0.82 1.43-1.1 2.18-0.72l1.05 0.54-4.89 9.6z m11.52-6.2L12.56 3.99c0.26-0.5-0.02-1.04-0.56-1.31 0 0-2.05-1.05-2.04-1.04-0.53-0.28-1.14-0.19-1.4 0.31l-0.7 1.38L5.94 2.35l-4.89 9.6 7.86 4L13.8 6.35l-1.94-0.98z m-0.72-0.37L8.57 3.69l0.72-1.42 2.57 1.31-0.72 1.42z m-1.52 11.3l1.06 0.53c0.73 0.37 1.7 0.19 2.18-0.74 0 0 3.39-6.66 3.4-6.67 0.42-0.82 0.05-1.8-0.69-2.19l-1.05-0.53-4.89 9.59z"></path></g><g id="SvgjsG7175"><path d="M10.39 0.24L7.65-1.16l-1 1.96 2.74 1.4L10.39 0.24z m-1.22 10.03a0.53 0.53 0 0 1-0.23-0.71L11.7 4.15l4.14 2.11-2.02 8.28-0.25 0.47L11.9 18.27a0.51 0.51 0 0 1-0.69 0.23L7.19 16.45a0.51 0.51 0 0 1-0.22-0.69L9.64 10.51l-0.44-0.22m-3.61-1.83c0.26 0.13 0.58 0.03 0.71-0.22L9.06 2.82l-4.13-2.11L-0.59 7.21-0.82 7.69l-1.67 3.27a0.51 0.51 0 0 0 0.23 0.69l4.02 2.05c0.26 0.13 0.57 0.03 0.69-0.22l2.68-5.25 0.43 0.22m5.53-4.6l-1.42-0.73-2.56 5.04 1.42 0.72 2.56-5.03zM15.75 2.97L13.01 1.58l-1 1.96 2.75 1.39L15.75 2.97z"></path></g><g id="SvgjsG7177"><path d="M8.39 16l-0.22-0.11c-0.05-0.21-0.01-0.41 0.14-0.62 0.25-0.34 0.67-0.51 0.82-0.49l0 0a0.53 0.53 0 0 0 0.53-0.28l4.9-9.6c0.13-0.26 0.03-0.57-0.22-0.7 0 0-1.92-0.98-2.45-1.26l0.55-1.07c0.1-0.19 0.07-0.41-0.06-0.57a0.52 0.52 0 0 0-0.56-0.16L6.96 2.73C6.11 3.01 5.12 3.85 4.71 4.66L1.26 11.36c-0.48 0.94-0.12 2.09 0.81 2.58l5.84 2.99c0.25 0.13 0.57 0.03 0.7-0.23l0 0c0.13-0.26 0.03-0.57-0.22-0.7M13.4 4.9c-0.41 0.8-4.02 7.86-4.43 8.66l-5.27-2.68 4.72-1.12 2.99-5.88c0.3 0.15 1.71 0.87 1.99 1.02M2.18 11.84s0.2-0.39 0.23-0.45L7.93 14.2c-0.17 0.13-0.32 0.28-0.45 0.45-0.17 0.23-0.27 0.47-0.32 0.72l-4.61-2.37c-0.42-0.22-0.59-0.74-0.37-1.16"></path></g><g id="SvgjsG7187"><path d="M5.45-1.3l-6.66 13.06 11.48 5.85L16.93 4.54l-11.48-5.84z m-2.49 13.18L1.02 10.89 2 8.95 3.95 9.93l-0.99 1.95z m1.51-2.97L2.53 7.92 3.52 5.98 5.46 6.97l-0.99 1.94z m1.84 4.68L4.37 12.6 5.36 10.66l1.94 0.99-0.99 1.94z m1.52-2.97L5.88 9.63 6.87 7.69l1.95 0.99-0.99 1.94z m1.85 4.68L7.74 14.31l2.5-4.91 1.94 0.99-2.5 4.91z m3.54-6.78l-8.71-4.44L6.09 0.97l8.72 4.44L13.22 8.52z"></path></g><g id="SvgjsG7184"><path d="M12.41 14.91L-0.99 8.08c-0.61 1.19 0.02 2.2 0.74 2.56l10.15 5.17c0.87 0.44 1.98 0.15 2.51-0.9zM14.97 5.01L5.19 0.02l-3.28 6.42c-0.44 0.87-0.04 1.94 0.77 2.36l6.35 3.23c0.92 0.47 1.93 0.02 2.33-0.77L11.64 10.72c1.81 0.92 3.82 0.23 4.62-1.35 0.82-1.62 0.21-3.6-1.29-4.36z m0.13 3.77c-0.47 0.92-1.6 1.46-2.84 0.72L14.02 6.04l0.34 0.17 0 0c1.24 0.63 1.04 2.01 0.74 2.57l0 0z"></path></g><g id="SvgjsG7178"><path d="M1.68 9.48L3.16 6.58c1.29-2.53 4.59-3.55 7.25-2.19 2.69 1.37 3.8 4.58 2.49 7.15l-1.48 2.9 1.2 0.62L14.1 12.15C15.77 8.9 14.38 4.88 11.03 3.18 7.7 1.48 3.59 2.76 1.95 5.96l-1.47 2.91 1.2 0.61z"></path><path d="M2.7 12.82l-1.59-0.8L3.43 7.46l1.59 0.81c-0.26 2.53-2.32 4.55-2.32 4.55m7.71-1.8L12 11.83 9.68 16.38l-1.59-0.81c0.26-2.53 2.32-4.56 2.32-4.55"></path></g><g id="SvgjsG7186"><path d="M17.29 6.98L7.52 8.95 3.36-0.12z m-4.02 7.9L10.78 9.41l5.88-1.19zM2.71 1.11l2.49 5.47L-0.68 7.77z"></path><path d="M9.71 9.61L6.9 10.17 5.71 7.58-1.27 8.97l13.95 7.1z"></path></g><g id="SvgjsG7180"><path d="M5.02 5.57l2.61 1.33c1.09 0.55 0.91 1.36 0.97 1.57 0.2 0.6 0.36 0.97 0.94 1.26l2.89 1.48L15.69 4.8l-2.89-1.47c-0.57-0.29-0.73-0.67-0.93-1.27C11.8 1.87 11.98 1.05 10.9 0.5L6.91-1.53l-7.11 13.95L1.18 13.12 5.02 5.57z" fill-rule="evenodd"></path></g><g id="SvgjsG7181"><path d="M10.63 13.54c1.19 0.61 2.65 0.14 3.26-1.06 0.61-1.2 0.13-2.66-1.06-3.26-1.2-0.61-2.66-0.14-3.27 1.06-0.61 1.19-0.13 2.65 1.07 3.26m-8.63-4.4c1.19 0.61 2.66 0.14 3.26-1.05 0.61-1.2 0.13-2.66-1.06-3.27-1.2-0.61-2.66-0.14-3.26 1.06-0.61 1.19-0.13 2.65 1.06 3.26M10.13 7.86L6.89 6.21l-1.1 2.16L9.03 10.02 10.13 7.86zM13.43 6.66l-7.48-3.81-0.71 1.4 7.48 3.81L13.43 6.67z m0.15 1.84L16.08 9.77l-3 5.88L-1.18 8.39l3-5.88 2.55 1.3 0.65-1.27c0.24-0.48 0.82-0.67 1.3-0.42L13.8 5.93c0.47 0.24 0.66 0.82 0.42 1.3l-0.64 1.27z"></path></g><g id="SvgjsG7174"><path d="M5.56 12.77C2.94 11.44 1.9 8.23 3.23 5.61 4.57 2.99 7.78 1.94 10.4 3.28s3.66 4.55 2.33 7.16c-1.33 2.62-4.55 3.66-7.17 2.33z m0.6-1.17c1.97 1 4.39 0.22 5.39-1.76 1-1.97 0.21-4.39-1.75-5.39-1.97-1-4.39-0.21-5.39 1.75-1.01 1.97-0.22 4.39 1.75 5.4z" fill-rule="evenodd"></path><path d="M7.68 8.66a0.4 0.4 0 0 1-0.32-0.2 0.4 0.4 0 0 1-0.04-0.32L8.72 5.38a0.4 0.4 0 0 1 0.72 0.36l-1.09 2.14 2.27 0.07a0.4 0.4 0 0 1 0.39 0.41c-0.01 0.22-0.19 0.4-0.42 0.39l-2.9-0.09zM3.89 11.03l4.07 2.08-1.56 3.06L2.33 14.09zM9.6-0.17l4.07 2.08-1.56 3.06L8.04 2.89z" fill-rule="evenodd"></path></g><g id="SvgjsG7188"><use xlink:href="#SvgjsG7174" transform="translate(0, 0) scale(1.5)" fill="rgba(63, 63, 63, 1)"></use><use xlink:href="#SvgjsG7175" transform="translate(0, 37.5) scale(1.5)" fill="rgba(63, 63, 63, 1)"></use><use xlink:href="#SvgjsG7175" transform="translate(0, 75) scale(1.5)" fill="rgba(63, 63, 63, 1)"></use><use xlink:href="#SvgjsG7176" transform="translate(0, 112.5) scale(1.5)" fill="rgba(63, 63, 63, 1)"></use><use xlink:href="#SvgjsG7177" transform="translate(0, 150) scale(1.5)" fill="rgba(63, 63, 63, 1)"></use><use xlink:href="#SvgjsG7178" transform="translate(0, 187.5) scale(1.5)" fill="rgba(63, 63, 63, 1)"></use><use xlink:href="#SvgjsG7179" transform="translate(0, 225) scale(1.5)" fill="rgba(63, 63, 63, 1)"></use><use xlink:href="#SvgjsG7174" transform="translate(0, 262.5) scale(1.5)" fill="rgba(63, 63, 63, 1)"></use><use xlink:href="#SvgjsG7180" transform="translate(0, 300) scale(1.5)" fill="rgba(63, 63, 63, 1)"></use><use xlink:href="#SvgjsG7181" transform="translate(0, 337.5) scale(1.5)" fill="rgba(63, 63, 63, 1)"></use><use xlink:href="#SvgjsG7182" transform="translate(37.5, 0) scale(1.5)" fill="rgba(63, 63, 63, 1)"></use><use xlink:href="#SvgjsG7181" transform="translate(37.5, 37.5) scale(1.5)" fill="rgba(63, 63, 63, 1)"></use><use xlink:href="#SvgjsG7183" transform="translate(37.5, 75) scale(1.5)" fill="rgba(63, 63, 63, 1)"></use><use xlink:href="#SvgjsG7180" transform="translate(37.5, 112.5) scale(1.5)" fill="rgba(63, 63, 63, 1)"></use><use xlink:href="#SvgjsG7184" transform="translate(37.5, 150) scale(1.5)" fill="rgba(63, 63, 63, 1)"></use><use xlink:href="#SvgjsG7176" transform="translate(37.5, 187.5) scale(1.5)" fill="rgba(63, 63, 63, 1)"></use><use xlink:href="#SvgjsG7185" transform="translate(37.5, 225) scale(1.5)" fill="rgba(63, 63, 63, 1)"></use><use xlink:href="#SvgjsG7184" transform="translate(37.5, 262.5) scale(1.5)" fill="rgba(63, 63, 63, 1)"></use><use xlink:href="#SvgjsG7184" transform="translate(37.5, 300) scale(1.5)" fill="rgba(63, 63, 63, 1)"></use><use xlink:href="#SvgjsG7176" transform="translate(37.5, 337.5) scale(1.5)" fill="rgba(63, 63, 63, 1)"></use><use xlink:href="#SvgjsG7177" transform="translate(75, 0) scale(1.5)" fill="rgba(63, 63, 63, 1)"></use><use xlink:href="#SvgjsG7186" transform="translate(75, 37.5) scale(1.5)" fill="rgba(63, 63, 63, 1)"></use><use xlink:href="#SvgjsG7176" transform="translate(75, 75) scale(1.5)" fill="rgba(63, 63, 63, 1)"></use><use xlink:href="#SvgjsG7174" transform="translate(75, 112.5) scale(1.5)" fill="rgba(63, 63, 63, 1)"></use><use xlink:href="#SvgjsG7182" transform="translate(75, 150) scale(1.5)" fill="rgba(63, 63, 63, 1)"></use><use xlink:href="#SvgjsG7180" transform="translate(75, 187.5) scale(1.5)" fill="rgba(63, 63, 63, 1)"></use><use xlink:href="#SvgjsG7176" transform="translate(75, 225) scale(1.5)" fill="rgba(63, 63, 63, 1)"></use><use xlink:href="#SvgjsG7177" transform="translate(75, 262.5) scale(1.5)" fill="rgba(63, 63, 63, 1)"></use><use xlink:href="#SvgjsG7176" transform="translate(75, 300) scale(1.5)" fill="rgba(63, 63, 63, 1)"></use><use xlink:href="#SvgjsG7179" transform="translate(75, 337.5) scale(1.5)" fill="rgba(63, 63, 63, 1)"></use><use xlink:href="#SvgjsG7179" transform="translate(112.5, 0) scale(1.5)" fill="rgba(63, 63, 63, 1)"></use><use xlink:href="#SvgjsG7174" transform="translate(112.5, 37.5) scale(1.5)" fill="rgba(63, 63, 63, 1)"></use><use xlink:href="#SvgjsG7176" transform="translate(112.5, 75) scale(1.5)" fill="rgba(63, 63, 63, 1)"></use><use xlink:href="#SvgjsG7185" transform="translate(112.5, 112.5) scale(1.5)" fill="rgba(63, 63, 63, 1)"></use><use xlink:href="#SvgjsG7186" transform="translate(112.5, 150) scale(1.5)" fill="rgba(63, 63, 63, 1)"></use><use xlink:href="#SvgjsG7175" transform="translate(112.5, 187.5) scale(1.5)" fill="rgba(63, 63, 63, 1)"></use><use xlink:href="#SvgjsG7180" transform="translate(112.5, 225) scale(1.5)" fill="rgba(63, 63, 63, 1)"></use><use xlink:href="#SvgjsG7174" transform="translate(112.5, 262.5) scale(1.5)" fill="rgba(63, 63, 63, 1)"></use><use xlink:href="#SvgjsG7183" transform="translate(112.5, 300) scale(1.5)" fill="rgba(63, 63, 63, 1)"></use><use xlink:href="#SvgjsG7182" transform="translate(112.5, 337.5) scale(1.5)" fill="rgba(63, 63, 63, 1)"></use><use xlink:href="#SvgjsG7176" transform="translate(150, 0) scale(1.5)" fill="rgba(63, 63, 63, 1)"></use><use xlink:href="#SvgjsG7184" transform="translate(150, 37.5) scale(1.5)" fill="rgba(63, 63, 63, 1)"></use><use xlink:href="#SvgjsG7175" transform="translate(150, 75) scale(1.5)" fill="rgba(63, 63, 63, 1)"></use><use xlink:href="#SvgjsG7183" transform="translate(150, 112.5) scale(1.5)" fill="rgba(63, 63, 63, 1)"></use><use xlink:href="#SvgjsG7183" transform="translate(150, 150) scale(1.5)" fill="rgba(63, 63, 63, 1)"></use><use xlink:href="#SvgjsG7179" transform="translate(150, 187.5) scale(1.5)" fill="rgba(63, 63, 63, 1)"></use><use xlink:href="#SvgjsG7185" transform="translate(150, 225) scale(1.5)" fill="rgba(63, 63, 63, 1)"></use><use xlink:href="#SvgjsG7180" transform="translate(150, 262.5) scale(1.5)" fill="rgba(63, 63, 63, 1)"></use><use xlink:href="#SvgjsG7183" transform="translate(150, 300) scale(1.5)" fill="rgba(63, 63, 63, 1)"></use><use xlink:href="#SvgjsG7174" transform="translate(150, 337.5) scale(1.5)" fill="rgba(63, 63, 63, 1)"></use><use xlink:href="#SvgjsG7183" transform="translate(187.5, 0) scale(1.5)" fill="rgba(63, 63, 63, 1)"></use><use xlink:href="#SvgjsG7177" transform="translate(187.5, 37.5) scale(1.5)" fill="rgba(63, 63, 63, 1)"></use><use xlink:href="#SvgjsG7183" transform="translate(187.5, 75) scale(1.5)" fill="rgba(63, 63, 63, 1)"></use><use xlink:href="#SvgjsG7174" transform="translate(187.5, 112.5) scale(1.5)" fill="rgba(63, 63, 63, 1)"></use><use xlink:href="#SvgjsG7175" transform="translate(187.5, 150) scale(1.5)" fill="rgba(63, 63, 63, 1)"></use><use xlink:href="#SvgjsG7176" transform="translate(187.5, 187.5) scale(1.5)" fill="rgba(63, 63, 63, 1)"></use><use xlink:href="#SvgjsG7175" transform="translate(187.5, 225) scale(1.5)" fill="rgba(63, 63, 63, 1)"></use><use xlink:href="#SvgjsG7184" transform="translate(187.5, 262.5) scale(1.5)" fill="rgba(63, 63, 63, 1)"></use><use xlink:href="#SvgjsG7175" transform="translate(187.5, 300) scale(1.5)" fill="rgba(63, 63, 63, 1)"></use><use xlink:href="#SvgjsG7175" transform="translate(187.5, 337.5) scale(1.5)" fill="rgba(63, 63, 63, 1)"></use><use xlink:href="#SvgjsG7185" transform="translate(225, 0) scale(1.5)" fill="rgba(63, 63, 63, 1)"></use><use xlink:href="#SvgjsG7179" transform="translate(225, 37.5) scale(1.5)" fill="rgba(63, 63, 63, 1)"></use><use xlink:href="#SvgjsG7185" transform="translate(225, 75) scale(1.5)" fill="rgba(63, 63, 63, 1)"></use><use xlink:href="#SvgjsG7174" transform="translate(225, 112.5) scale(1.5)" fill="rgba(63, 63, 63, 1)"></use><use xlink:href="#SvgjsG7174" transform="translate(225, 150) scale(1.5)" fill="rgba(63, 63, 63, 1)"></use><use xlink:href="#SvgjsG7184" transform="translate(225, 187.5) scale(1.5)" fill="rgba(63, 63, 63, 1)"></use><use xlink:href="#SvgjsG7177" transform="translate(225, 225) scale(1.5)" fill="rgba(63, 63, 63, 1)"></use><use xlink:href="#SvgjsG7178" transform="translate(225, 262.5) scale(1.5)" fill="rgba(63, 63, 63, 1)"></use><use xlink:href="#SvgjsG7182" transform="translate(225, 300) scale(1.5)" fill="rgba(63, 63, 63, 1)"></use><use xlink:href="#SvgjsG7181" transform="translate(225, 337.5) scale(1.5)" fill="rgba(63, 63, 63, 1)"></use><use xlink:href="#SvgjsG7177" transform="translate(262.5, 0) scale(1.5)" fill="rgba(63, 63, 63, 1)"></use><use xlink:href="#SvgjsG7178" transform="translate(262.5, 37.5) scale(1.5)" fill="rgba(63, 63, 63, 1)"></use><use xlink:href="#SvgjsG7185" transform="translate(262.5, 75) scale(1.5)" fill="rgba(63, 63, 63, 1)"></use><use xlink:href="#SvgjsG7175" transform="translate(262.5, 112.5) scale(1.5)" fill="rgba(63, 63, 63, 1)"></use><use xlink:href="#SvgjsG7176" transform="translate(262.5, 150) scale(1.5)" fill="rgba(63, 63, 63, 1)"></use><use xlink:href="#SvgjsG7180" transform="translate(262.5, 187.5) scale(1.5)" fill="rgba(63, 63, 63, 1)"></use><use xlink:href="#SvgjsG7181" transform="translate(262.5, 225) scale(1.5)" fill="rgba(63, 63, 63, 1)"></use><use xlink:href="#SvgjsG7184" transform="translate(262.5, 262.5) scale(1.5)" fill="rgba(63, 63, 63, 1)"></use><use xlink:href="#SvgjsG7178" transform="translate(262.5, 300) scale(1.5)" fill="rgba(63, 63, 63, 1)"></use><use xlink:href="#SvgjsG7175" transform="translate(262.5, 337.5) scale(1.5)" fill="rgba(63, 63, 63, 1)"></use><use xlink:href="#SvgjsG7174" transform="translate(300, 0) scale(1.5)" fill="rgba(63, 63, 63, 1)"></use><use xlink:href="#SvgjsG7181" transform="translate(300, 37.5) scale(1.5)" fill="rgba(63, 63, 63, 1)"></use><use xlink:href="#SvgjsG7176" transform="translate(300, 75) scale(1.5)" fill="rgba(63, 63, 63, 1)"></use><use xlink:href="#SvgjsG7181" transform="translate(300, 112.5) scale(1.5)" fill="rgba(63, 63, 63, 1)"></use><use xlink:href="#SvgjsG7184" transform="translate(300, 150) scale(1.5)" fill="rgba(63, 63, 63, 1)"></use><use xlink:href="#SvgjsG7181" transform="translate(300, 187.5) scale(1.5)" fill="rgba(63, 63, 63, 1)"></use><use xlink:href="#SvgjsG7187" transform="translate(300, 225) scale(1.5)" fill="rgba(63, 63, 63, 1)"></use><use xlink:href="#SvgjsG7182" transform="translate(300, 262.5) scale(1.5)" fill="rgba(63, 63, 63, 1)"></use><use xlink:href="#SvgjsG7183" transform="translate(300, 300) scale(1.5)" fill="rgba(63, 63, 63, 1)"></use><use xlink:href="#SvgjsG7175" transform="translate(300, 337.5) scale(1.5)" fill="rgba(63, 63, 63, 1)"></use><use xlink:href="#SvgjsG7175" transform="translate(337.5, 0) scale(1.5)" fill="rgba(63, 63, 63, 1)"></use><use xlink:href="#SvgjsG7181" transform="translate(337.5, 37.5) scale(1.5)" fill="rgba(63, 63, 63, 1)"></use><use xlink:href="#SvgjsG7176" transform="translate(337.5, 75) scale(1.5)" fill="rgba(63, 63, 63, 1)"></use><use xlink:href="#SvgjsG7181" transform="translate(337.5, 112.5) scale(1.5)" fill="rgba(63, 63, 63, 1)"></use><use xlink:href="#SvgjsG7180" transform="translate(337.5, 150) scale(1.5)" fill="rgba(63, 63, 63, 1)"></use><use xlink:href="#SvgjsG7175" transform="translate(337.5, 187.5) scale(1.5)" fill="rgba(63, 63, 63, 1)"></use><use xlink:href="#SvgjsG7187" transform="translate(337.5, 225) scale(1.5)" fill="rgba(63, 63, 63, 1)"></use><use xlink:href="#SvgjsG7183" transform="translate(337.5, 262.5) scale(1.5)" fill="rgba(63, 63, 63, 1)"></use><use xlink:href="#SvgjsG7184" transform="translate(337.5, 300) scale(1.5)" fill="rgba(63, 63, 63, 1)"></use><use xlink:href="#SvgjsG7183" transform="translate(337.5, 337.5) scale(1.5)" fill="rgba(63, 63, 63, 1)"></use></g></defs></svg>