<svg xmlns="http://www.w3.org/2000/svg" version="1.1" xmlns:xlink="http://www.w3.org/1999/xlink" xmlns:svgjs="http://svgjs.dev/svgjs" width="1440" height="560" preserveAspectRatio="none" viewBox="0 0 1440 560"><g mask="url(&quot;#SvgjsMask1018&quot;)" fill="none"><rect width="1440" height="560" x="0" y="0" fill="rgba(0, 0, 0, 1)"></rect><path d="M-76.5 345.56L-76.5 345.56" stroke="rgba(43, 43, 43, 1)" stroke-width="1.5"></path><path d="M-76.5 345.56L67.54 362.98" stroke="rgba(43, 43, 43, 1)" stroke-width="1.5"></path><path d="M-67.17 534.49L-67.17 534.49" stroke="rgba(43, 43, 43, 1)" stroke-width="1.5"></path><path d="M-67.17 534.49L71.56 549.9" stroke="rgba(43, 43, 43, 1)" stroke-width="1.5"></path><path d="M-67.17 534.49L-93.96 699.18" stroke="rgba(43, 43, 43, 1)" stroke-width="1.5"></path><path d="M-67.17 534.49L-76.5 345.56" stroke="rgba(43, 43, 43, 1)" stroke-width="1.5"></path><path d="M-67.17 534.49L93 655.77" stroke="rgba(43, 43, 43, 1)" stroke-width="1.5"></path><path d="M-67.17 534.49L67.54 362.98" stroke="rgba(43, 43, 43, 1)" stroke-width="1.5"></path><path d="M-67.17 534.49L188.44 512.98" stroke="rgba(43, 43, 43, 1)" stroke-width="1.5"></path><path d="M-93.96 699.18L-93.96 699.18" stroke="rgba(43, 43, 43, 1)" stroke-width="1.5"></path><path d="M-93.96 699.18L93 655.77" stroke="rgba(43, 43, 43, 1)" stroke-width="1.5"></path><path d="M-93.96 699.18L71.56 549.9" stroke="rgba(43, 43, 43, 1)" stroke-width="1.5"></path><path d="M-93.96 699.18L227.03 709.74" stroke="rgba(43, 43, 43, 1)" stroke-width="1.5"></path><path d="M67.54 362.98L67.54 362.98" stroke="rgba(43, 43, 43, 1)" stroke-width="1.5"></path><path d="M67.54 362.98L205.5 399.26" stroke="rgba(43, 43, 43, 1)" stroke-width="1.5"></path><path d="M67.54 362.98L71.56 549.9" stroke="rgba(43, 43, 43, 1)" stroke-width="1.5"></path><path d="M67.54 362.98L188.44 512.98" stroke="rgba(43, 43, 43, 1)" stroke-width="1.5"></path><path d="M67.54 362.98L93 655.77" stroke="rgba(43, 43, 43, 1)" stroke-width="1.5"></path><path d="M71.56 549.9L71.56 549.9" stroke="rgba(43, 43, 43, 1)" stroke-width="1.5"></path><path d="M71.56 549.9L93 655.77" stroke="rgba(43, 43, 43, 1)" stroke-width="1.5"></path><path d="M71.56 549.9L188.44 512.98" stroke="rgba(43, 43, 43, 1)" stroke-width="1.5"></path><path d="M93 655.77L93 655.77" stroke="rgba(43, 43, 43, 1)" stroke-width="1.5"></path><path d="M93 655.77L227.03 709.74" stroke="rgba(43, 43, 43, 1)" stroke-width="1.5"></path><path d="M93 655.77L188.44 512.98" stroke="rgba(43, 43, 43, 1)" stroke-width="1.5"></path><path d="M205.5 399.26L205.5 399.26" stroke="rgba(43, 43, 43, 1)" stroke-width="1.5"></path><path d="M205.5 399.26L188.44 512.98" stroke="rgba(43, 43, 43, 1)" stroke-width="1.5"></path><path d="M205.5 399.26L373.05 369.59" stroke="rgba(43, 43, 43, 1)" stroke-width="1.5"></path><path d="M205.5 399.26L71.56 549.9" stroke="rgba(43, 43, 43, 1)" stroke-width="1.5"></path><path d="M205.5 399.26L93 655.77" stroke="rgba(43, 43, 43, 1)" stroke-width="1.5"></path><path d="M205.5 399.26L-76.5 345.56" stroke="rgba(43, 43, 43, 1)" stroke-width="1.5"></path><path d="M188.44 512.98L188.44 512.98" stroke="rgba(43, 43, 43, 1)" stroke-width="1.5"></path><path d="M227.03 709.74L227.03 709.74" stroke="rgba(43, 43, 43, 1)" stroke-width="1.5"></path><path d="M373.05 369.59L373.05 369.59" stroke="rgba(43, 43, 43, 1)" stroke-width="1.5"></path><path d="M373.05 369.59L527.16 354.95" stroke="rgba(43, 43, 43, 1)" stroke-width="1.5"></path><path d="M378.14 695.95L378.14 695.95" stroke="rgba(43, 43, 43, 1)" stroke-width="1.5"></path><path d="M378.14 695.95L227.03 709.74" stroke="rgba(43, 43, 43, 1)" stroke-width="1.5"></path><path d="M378.14 695.95L533.91 649.67" stroke="rgba(43, 43, 43, 1)" stroke-width="1.5"></path><path d="M378.14 695.95L559.6 540.46" stroke="rgba(43, 43, 43, 1)" stroke-width="1.5"></path><path d="M527.16 354.95L527.16 354.95" stroke="rgba(43, 43, 43, 1)" stroke-width="1.5"></path><path d="M527.16 354.95L641.19 232.76" stroke="rgba(43, 43, 43, 1)" stroke-width="1.5"></path><path d="M527.16 354.95L708.21 372.92" stroke="rgba(43, 43, 43, 1)" stroke-width="1.5"></path><path d="M527.16 354.95L559.6 540.46" stroke="rgba(43, 43, 43, 1)" stroke-width="1.5"></path><path d="M527.16 354.95L700.02 531.7" stroke="rgba(43, 43, 43, 1)" stroke-width="1.5"></path><path d="M527.16 354.95L796.71 250.55" stroke="rgba(43, 43, 43, 1)" stroke-width="1.5"></path><path d="M559.6 540.46L559.6 540.46" stroke="rgba(43, 43, 43, 1)" stroke-width="1.5"></path><path d="M559.6 540.46L533.91 649.67" stroke="rgba(43, 43, 43, 1)" stroke-width="1.5"></path><path d="M559.6 540.46L700.02 531.7" stroke="rgba(43, 43, 43, 1)" stroke-width="1.5"></path><path d="M559.6 540.46L668.73 666.35" stroke="rgba(43, 43, 43, 1)" stroke-width="1.5"></path><path d="M559.6 540.46L708.21 372.92" stroke="rgba(43, 43, 43, 1)" stroke-width="1.5"></path><path d="M533.91 649.67L533.91 649.67" stroke="rgba(43, 43, 43, 1)" stroke-width="1.5"></path><path d="M533.91 649.67L668.73 666.35" stroke="rgba(43, 43, 43, 1)" stroke-width="1.5"></path><path d="M641.19 232.76L641.19 232.76" stroke="rgba(43, 43, 43, 1)" stroke-width="1.5"></path><path d="M641.19 232.76L708.21 372.92" stroke="rgba(43, 43, 43, 1)" stroke-width="1.5"></path><path d="M641.19 232.76L796.71 250.55" stroke="rgba(43, 43, 43, 1)" stroke-width="1.5"></path><path d="M641.19 232.76L855.86 348.09" stroke="rgba(43, 43, 43, 1)" stroke-width="1.5"></path><path d="M641.19 232.76L373.05 369.59" stroke="rgba(43, 43, 43, 1)" stroke-width="1.5"></path><path d="M708.21 372.92L708.21 372.92" stroke="rgba(43, 43, 43, 1)" stroke-width="1.5"></path><path d="M708.21 372.92L855.86 348.09" stroke="rgba(43, 43, 43, 1)" stroke-width="1.5"></path><path d="M708.21 372.92L796.71 250.55" stroke="rgba(43, 43, 43, 1)" stroke-width="1.5"></path><path d="M708.21 372.92L700.02 531.7" stroke="rgba(43, 43, 43, 1)" stroke-width="1.5"></path><path d="M708.21 372.92L825.43 534.72" stroke="rgba(43, 43, 43, 1)" stroke-width="1.5"></path><path d="M700.02 531.7L700.02 531.7" stroke="rgba(43, 43, 43, 1)" stroke-width="1.5"></path><path d="M700.02 531.7L825.43 534.72" stroke="rgba(43, 43, 43, 1)" stroke-width="1.5"></path><path d="M700.02 531.7L668.73 666.35" stroke="rgba(43, 43, 43, 1)" stroke-width="1.5"></path><path d="M700.02 531.7L799.88 668.73" stroke="rgba(43, 43, 43, 1)" stroke-width="1.5"></path><path d="M700.02 531.7L533.91 649.67" stroke="rgba(43, 43, 43, 1)" stroke-width="1.5"></path><path d="M668.73 666.35L668.73 666.35" stroke="rgba(43, 43, 43, 1)" stroke-width="1.5"></path><path d="M668.73 666.35L799.88 668.73" stroke="rgba(43, 43, 43, 1)" stroke-width="1.5"></path><path d="M796.71 250.55L796.71 250.55" stroke="rgba(43, 43, 43, 1)" stroke-width="1.5"></path><path d="M796.71 250.55L855.86 348.09" stroke="rgba(43, 43, 43, 1)" stroke-width="1.5"></path><path d="M855.86 348.09L855.86 348.09" stroke="rgba(43, 43, 43, 1)" stroke-width="1.5"></path><path d="M855.86 348.09L990.05 404.67" stroke="rgba(43, 43, 43, 1)" stroke-width="1.5"></path><path d="M855.86 348.09L986.13 246.66" stroke="rgba(43, 43, 43, 1)" stroke-width="1.5"></path><path d="M855.86 348.09L825.43 534.72" stroke="rgba(43, 43, 43, 1)" stroke-width="1.5"></path><path d="M825.43 534.72L825.43 534.72" stroke="rgba(43, 43, 43, 1)" stroke-width="1.5"></path><path d="M825.43 534.72L799.88 668.73" stroke="rgba(43, 43, 43, 1)" stroke-width="1.5"></path><path d="M825.43 534.72L1008.39 558.35" stroke="rgba(43, 43, 43, 1)" stroke-width="1.5"></path><path d="M799.88 668.73L799.88 668.73" stroke="rgba(43, 43, 43, 1)" stroke-width="1.5"></path><path d="M799.88 668.73L949.61 680.49" stroke="rgba(43, 43, 43, 1)" stroke-width="1.5"></path><path d="M799.88 668.73L1008.39 558.35" stroke="rgba(43, 43, 43, 1)" stroke-width="1.5"></path><path d="M799.88 668.73L533.91 649.67" stroke="rgba(43, 43, 43, 1)" stroke-width="1.5"></path><path d="M945.52 -84.43L945.52 -84.43" stroke="rgba(43, 43, 43, 1)" stroke-width="1.5"></path><path d="M945.52 -84.43L1147.77 -105.14" stroke="rgba(43, 43, 43, 1)" stroke-width="1.5"></path><path d="M945.52 -84.43L1132.24 110.98" stroke="rgba(43, 43, 43, 1)" stroke-width="1.5"></path><path d="M986.13 246.66L986.13 246.66" stroke="rgba(43, 43, 43, 1)" stroke-width="1.5"></path><path d="M986.13 246.66L1139.32 258.72" stroke="rgba(43, 43, 43, 1)" stroke-width="1.5"></path><path d="M986.13 246.66L1108.58 339.85" stroke="rgba(43, 43, 43, 1)" stroke-width="1.5"></path><path d="M986.13 246.66L990.05 404.67" stroke="rgba(43, 43, 43, 1)" stroke-width="1.5"></path><path d="M986.13 246.66L796.71 250.55" stroke="rgba(43, 43, 43, 1)" stroke-width="1.5"></path><path d="M986.13 246.66L1132.24 110.98" stroke="rgba(43, 43, 43, 1)" stroke-width="1.5"></path><path d="M990.05 404.67L990.05 404.67" stroke="rgba(43, 43, 43, 1)" stroke-width="1.5"></path><path d="M990.05 404.67L1108.58 339.85" stroke="rgba(43, 43, 43, 1)" stroke-width="1.5"></path><path d="M990.05 404.67L1008.39 558.35" stroke="rgba(43, 43, 43, 1)" stroke-width="1.5"></path><path d="M990.05 404.67L1120.44 527.54" stroke="rgba(43, 43, 43, 1)" stroke-width="1.5"></path><path d="M990.05 404.67L1139.32 258.72" stroke="rgba(43, 43, 43, 1)" stroke-width="1.5"></path><path d="M1008.39 558.35L1008.39 558.35" stroke="rgba(43, 43, 43, 1)" stroke-width="1.5"></path><path d="M1008.39 558.35L1120.44 527.54" stroke="rgba(43, 43, 43, 1)" stroke-width="1.5"></path><path d="M1008.39 558.35L949.61 680.49" stroke="rgba(43, 43, 43, 1)" stroke-width="1.5"></path><path d="M1008.39 558.35L1146.09 673.24" stroke="rgba(43, 43, 43, 1)" stroke-width="1.5"></path><path d="M949.61 680.49L949.61 680.49" stroke="rgba(43, 43, 43, 1)" stroke-width="1.5"></path><path d="M1147.77 -105.14L1147.77 -105.14" stroke="rgba(43, 43, 43, 1)" stroke-width="1.5"></path><path d="M1147.77 -105.14L1309 -92.99" stroke="rgba(43, 43, 43, 1)" stroke-width="1.5"></path><path d="M1147.77 -105.14L1132.24 110.98" stroke="rgba(43, 43, 43, 1)" stroke-width="1.5"></path><path d="M1147.77 -105.14L1241.88 95.68" stroke="rgba(43, 43, 43, 1)" stroke-width="1.5"></path><path d="M1132.24 110.98L1132.24 110.98" stroke="rgba(43, 43, 43, 1)" stroke-width="1.5"></path><path d="M1132.24 110.98L1241.88 95.68" stroke="rgba(43, 43, 43, 1)" stroke-width="1.5"></path><path d="M1132.24 110.98L1139.32 258.72" stroke="rgba(43, 43, 43, 1)" stroke-width="1.5"></path><path d="M1139.32 258.72L1139.32 258.72" stroke="rgba(43, 43, 43, 1)" stroke-width="1.5"></path><path d="M1139.32 258.72L1108.58 339.85" stroke="rgba(43, 43, 43, 1)" stroke-width="1.5"></path><path d="M1139.32 258.72L1269.56 196.03" stroke="rgba(43, 43, 43, 1)" stroke-width="1.5"></path><path d="M1139.32 258.72L1241.88 95.68" stroke="rgba(43, 43, 43, 1)" stroke-width="1.5"></path><path d="M1108.58 339.85L1108.58 339.85" stroke="rgba(43, 43, 43, 1)" stroke-width="1.5"></path><path d="M1120.44 527.54L1120.44 527.54" stroke="rgba(43, 43, 43, 1)" stroke-width="1.5"></path><path d="M1120.44 527.54L1146.09 673.24" stroke="rgba(43, 43, 43, 1)" stroke-width="1.5"></path><path d="M1146.09 673.24L1146.09 673.24" stroke="rgba(43, 43, 43, 1)" stroke-width="1.5"></path><path d="M1146.09 673.24L1274.49 647.66" stroke="rgba(43, 43, 43, 1)" stroke-width="1.5"></path><path d="M1146.09 673.24L949.61 680.49" stroke="rgba(43, 43, 43, 1)" stroke-width="1.5"></path><path d="M1146.09 673.24L1300.64 498.1" stroke="rgba(43, 43, 43, 1)" stroke-width="1.5"></path><path d="M1146.09 673.24L1440.08 672.17" stroke="rgba(43, 43, 43, 1)" stroke-width="1.5"></path><path d="M1309 -92.99L1309 -92.99" stroke="rgba(43, 43, 43, 1)" stroke-width="1.5"></path><path d="M1309 -92.99L1414.3 -44.39" stroke="rgba(43, 43, 43, 1)" stroke-width="1.5"></path><path d="M1309 -92.99L1389.19 71.96" stroke="rgba(43, 43, 43, 1)" stroke-width="1.5"></path><path d="M1309 -92.99L1241.88 95.68" stroke="rgba(43, 43, 43, 1)" stroke-width="1.5"></path><path d="M1309 -92.99L1552.45 -48.93" stroke="rgba(43, 43, 43, 1)" stroke-width="1.5"></path><path d="M1309 -92.99L1132.24 110.98" stroke="rgba(43, 43, 43, 1)" stroke-width="1.5"></path><path d="M1241.88 95.68L1241.88 95.68" stroke="rgba(43, 43, 43, 1)" stroke-width="1.5"></path><path d="M1241.88 95.68L1269.56 196.03" stroke="rgba(43, 43, 43, 1)" stroke-width="1.5"></path><path d="M1241.88 95.68L1389.19 71.96" stroke="rgba(43, 43, 43, 1)" stroke-width="1.5"></path><path d="M1241.88 95.68L1396.93 242.77" stroke="rgba(43, 43, 43, 1)" stroke-width="1.5"></path><path d="M1269.56 196.03L1269.56 196.03" stroke="rgba(43, 43, 43, 1)" stroke-width="1.5"></path><path d="M1269.56 196.03L1396.93 242.77" stroke="rgba(43, 43, 43, 1)" stroke-width="1.5"></path><path d="M1269.56 196.03L1132.24 110.98" stroke="rgba(43, 43, 43, 1)" stroke-width="1.5"></path><path d="M1269.56 196.03L1389.19 71.96" stroke="rgba(43, 43, 43, 1)" stroke-width="1.5"></path><path d="M1300.64 498.1L1300.64 498.1" stroke="rgba(43, 43, 43, 1)" stroke-width="1.5"></path><path d="M1300.64 498.1L1397.03 496.42" stroke="rgba(43, 43, 43, 1)" stroke-width="1.5"></path><path d="M1300.64 498.1L1274.49 647.66" stroke="rgba(43, 43, 43, 1)" stroke-width="1.5"></path><path d="M1300.64 498.1L1120.44 527.54" stroke="rgba(43, 43, 43, 1)" stroke-width="1.5"></path><path d="M1300.64 498.1L1458.99 377.05" stroke="rgba(43, 43, 43, 1)" stroke-width="1.5"></path><path d="M1274.49 647.66L1274.49 647.66" stroke="rgba(43, 43, 43, 1)" stroke-width="1.5"></path><path d="M1274.49 647.66L1440.08 672.17" stroke="rgba(43, 43, 43, 1)" stroke-width="1.5"></path><path d="M1414.3 -44.39L1414.3 -44.39" stroke="rgba(43, 43, 43, 1)" stroke-width="1.5"></path><path d="M1414.3 -44.39L1389.19 71.96" stroke="rgba(43, 43, 43, 1)" stroke-width="1.5"></path><path d="M1414.3 -44.39L1552.45 -48.93" stroke="rgba(43, 43, 43, 1)" stroke-width="1.5"></path><path d="M1414.3 -44.39L1586.91 47.74" stroke="rgba(43, 43, 43, 1)" stroke-width="1.5"></path><path d="M1414.3 -44.39L1241.88 95.68" stroke="rgba(43, 43, 43, 1)" stroke-width="1.5"></path><path d="M1414.3 -44.39L1147.77 -105.14" stroke="rgba(43, 43, 43, 1)" stroke-width="1.5"></path><path d="M1389.19 71.96L1389.19 71.96" stroke="rgba(43, 43, 43, 1)" stroke-width="1.5"></path><path d="M1396.93 242.77L1396.93 242.77" stroke="rgba(43, 43, 43, 1)" stroke-width="1.5"></path><path d="M1458.99 377.05L1458.99 377.05" stroke="rgba(43, 43, 43, 1)" stroke-width="1.5"></path><path d="M1458.99 377.05L1545.43 348.41" stroke="rgba(43, 43, 43, 1)" stroke-width="1.5"></path><path d="M1458.99 377.05L1397.03 496.42" stroke="rgba(43, 43, 43, 1)" stroke-width="1.5"></path><path d="M1458.99 377.05L1396.93 242.77" stroke="rgba(43, 43, 43, 1)" stroke-width="1.5"></path><path d="M1458.99 377.05L1578.01 493.45" stroke="rgba(43, 43, 43, 1)" stroke-width="1.5"></path><path d="M1458.99 377.05L1543.32 220.14" stroke="rgba(43, 43, 43, 1)" stroke-width="1.5"></path><path d="M1397.03 496.42L1397.03 496.42" stroke="rgba(43, 43, 43, 1)" stroke-width="1.5"></path><path d="M1397.03 496.42L1440.08 672.17" stroke="rgba(43, 43, 43, 1)" stroke-width="1.5"></path><path d="M1440.08 672.17L1440.08 672.17" stroke="rgba(43, 43, 43, 1)" stroke-width="1.5"></path><path d="M1440.08 672.17L1601.82 704.14" stroke="rgba(43, 43, 43, 1)" stroke-width="1.5"></path><path d="M1440.08 672.17L1300.64 498.1" stroke="rgba(43, 43, 43, 1)" stroke-width="1.5"></path><path d="M1552.45 -48.93L1552.45 -48.93" stroke="rgba(43, 43, 43, 1)" stroke-width="1.5"></path><path d="M1552.45 -48.93L1586.91 47.74" stroke="rgba(43, 43, 43, 1)" stroke-width="1.5"></path><path d="M1552.45 -48.93L1389.19 71.96" stroke="rgba(43, 43, 43, 1)" stroke-width="1.5"></path><path d="M1586.91 47.74L1586.91 47.74" stroke="rgba(43, 43, 43, 1)" stroke-width="1.5"></path><path d="M1586.91 47.74L1543.32 220.14" stroke="rgba(43, 43, 43, 1)" stroke-width="1.5"></path><path d="M1586.91 47.74L1389.19 71.96" stroke="rgba(43, 43, 43, 1)" stroke-width="1.5"></path><path d="M1586.91 47.74L1396.93 242.77" stroke="rgba(43, 43, 43, 1)" stroke-width="1.5"></path><path d="M1543.32 220.14L1543.32 220.14" stroke="rgba(43, 43, 43, 1)" stroke-width="1.5"></path><path d="M1543.32 220.14L1545.43 348.41" stroke="rgba(43, 43, 43, 1)" stroke-width="1.5"></path><path d="M1543.32 220.14L1396.93 242.77" stroke="rgba(43, 43, 43, 1)" stroke-width="1.5"></path><path d="M1545.43 348.41L1545.43 348.41" stroke="rgba(43, 43, 43, 1)" stroke-width="1.5"></path><path d="M1545.43 348.41L1578.01 493.45" stroke="rgba(43, 43, 43, 1)" stroke-width="1.5"></path><path d="M1545.43 348.41L1396.93 242.77" stroke="rgba(43, 43, 43, 1)" stroke-width="1.5"></path><path d="M1545.43 348.41L1397.03 496.42" stroke="rgba(43, 43, 43, 1)" stroke-width="1.5"></path><path d="M1578.01 493.45L1578.01 493.45" stroke="rgba(43, 43, 43, 1)" stroke-width="1.5"></path><path d="M1578.01 493.45L1397.03 496.42" stroke="rgba(43, 43, 43, 1)" stroke-width="1.5"></path><path d="M1578.01 493.45L1601.82 704.14" stroke="rgba(43, 43, 43, 1)" stroke-width="1.5"></path><path d="M1578.01 493.45L1440.08 672.17" stroke="rgba(43, 43, 43, 1)" stroke-width="1.5"></path><path d="M1578.01 493.45L1543.32 220.14" stroke="rgba(43, 43, 43, 1)" stroke-width="1.5"></path><path d="M1601.82 704.14L1601.82 704.14" stroke="rgba(43, 43, 43, 1)" stroke-width="1.5"></path><path d="M1601.82 704.14L1397.03 496.42" stroke="rgba(43, 43, 43, 1)" stroke-width="1.5"></path><path d="M1601.82 704.14L1274.49 647.66" stroke="rgba(43, 43, 43, 1)" stroke-width="1.5"></path><path d="M1601.82 704.14L1458.99 377.05" stroke="rgba(43, 43, 43, 1)" stroke-width="1.5"></path><circle r="5" cx="-76.5" cy="345.56" fill="rgba(43, 43, 43, 1)"></circle><circle r="5" cx="-67.17" cy="534.49" fill="rgba(43, 43, 43, 1)"></circle><circle r="5" cx="-93.96" cy="699.18" fill="rgba(43, 43, 43, 1)"></circle><circle r="5" cx="67.54" cy="362.98" fill="rgba(43, 43, 43, 1)"></circle><circle r="5" cx="71.56" cy="549.9" fill="rgba(43, 43, 43, 1)"></circle><circle r="5" cx="93" cy="655.77" fill="rgba(43, 43, 43, 1)"></circle><circle r="5" cx="205.5" cy="399.26" fill="rgba(43, 43, 43, 1)"></circle><circle r="5" cx="188.44" cy="512.98" fill="rgba(43, 43, 43, 1)"></circle><circle r="5" cx="227.03" cy="709.74" fill="rgba(43, 43, 43, 1)"></circle><circle r="5" cx="373.05" cy="369.59" fill="rgba(43, 43, 43, 1)"></circle><circle r="5" cx="378.14" cy="695.95" fill="rgba(43, 43, 43, 1)"></circle><circle r="5" cx="527.16" cy="354.95" fill="rgba(43, 43, 43, 1)"></circle><circle r="5" cx="559.6" cy="540.46" fill="rgba(43, 43, 43, 1)"></circle><circle r="5" cx="533.91" cy="649.67" fill="rgba(43, 43, 43, 1)"></circle><circle r="5" cx="641.19" cy="232.76" fill="rgba(43, 43, 43, 1)"></circle><circle r="5" cx="708.21" cy="372.92" fill="rgba(43, 43, 43, 1)"></circle><circle r="5" cx="700.02" cy="531.7" fill="rgba(43, 43, 43, 1)"></circle><circle r="5" cx="668.73" cy="666.35" fill="rgba(43, 43, 43, 1)"></circle><circle r="5" cx="796.71" cy="250.55" fill="rgba(43, 43, 43, 1)"></circle><circle r="5" cx="855.86" cy="348.09" fill="rgba(43, 43, 43, 1)"></circle><circle r="5" cx="825.43" cy="534.72" fill="rgba(43, 43, 43, 1)"></circle><circle r="5" cx="799.88" cy="668.73" fill="rgba(43, 43, 43, 1)"></circle><circle r="5" cx="945.52" cy="-84.43" fill="rgba(43, 43, 43, 1)"></circle><circle r="5" cx="986.13" cy="246.66" fill="rgba(43, 43, 43, 1)"></circle><circle r="5" cx="990.05" cy="404.67" fill="rgba(43, 43, 43, 1)"></circle><circle r="5" cx="1008.39" cy="558.35" fill="rgba(43, 43, 43, 1)"></circle><circle r="5" cx="949.61" cy="680.49" fill="rgba(43, 43, 43, 1)"></circle><circle r="5" cx="1147.77" cy="-105.14" fill="rgba(43, 43, 43, 1)"></circle><circle r="5" cx="1132.24" cy="110.98" fill="rgba(43, 43, 43, 1)"></circle><circle r="5" cx="1139.32" cy="258.72" fill="rgba(43, 43, 43, 1)"></circle><circle r="5" cx="1108.58" cy="339.85" fill="rgba(43, 43, 43, 1)"></circle><circle r="5" cx="1120.44" cy="527.54" fill="rgba(43, 43, 43, 1)"></circle><circle r="5" cx="1146.09" cy="673.24" fill="rgba(43, 43, 43, 1)"></circle><circle r="5" cx="1309" cy="-92.99" fill="rgba(43, 43, 43, 1)"></circle><circle r="5" cx="1241.88" cy="95.68" fill="rgba(43, 43, 43, 1)"></circle><circle r="5" cx="1269.56" cy="196.03" fill="rgba(43, 43, 43, 1)"></circle><circle r="5" cx="1300.64" cy="498.1" fill="rgba(43, 43, 43, 1)"></circle><circle r="5" cx="1274.49" cy="647.66" fill="rgba(43, 43, 43, 1)"></circle><circle r="5" cx="1414.3" cy="-44.39" fill="rgba(43, 43, 43, 1)"></circle><circle r="5" cx="1389.19" cy="71.96" fill="rgba(43, 43, 43, 1)"></circle><circle r="5" cx="1396.93" cy="242.77" fill="rgba(43, 43, 43, 1)"></circle><circle r="5" cx="1458.99" cy="377.05" fill="rgba(43, 43, 43, 1)"></circle><circle r="5" cx="1397.03" cy="496.42" fill="rgba(43, 43, 43, 1)"></circle><circle r="5" cx="1440.08" cy="672.17" fill="rgba(43, 43, 43, 1)"></circle><circle r="5" cx="1552.45" cy="-48.93" fill="rgba(43, 43, 43, 1)"></circle><circle r="5" cx="1586.91" cy="47.74" fill="rgba(43, 43, 43, 1)"></circle><circle r="5" cx="1543.32" cy="220.14" fill="rgba(43, 43, 43, 1)"></circle><circle r="5" cx="1545.43" cy="348.41" fill="rgba(43, 43, 43, 1)"></circle><circle r="5" cx="1578.01" cy="493.45" fill="rgba(43, 43, 43, 1)"></circle><circle r="5" cx="1601.82" cy="704.14" fill="rgba(43, 43, 43, 1)"></circle><path d="M-87.6 672.26L-87.6 672.26" stroke="hsl(0, 0%, 31.1%)" stroke-width="1.5"></path><path d="M-87.6 672.26L-83.64 496.31" stroke="hsl(0, 0%, 31.1%)" stroke-width="1.5"></path><path d="M-87.6 672.26L88.75 502.77" stroke="hsl(0, 0%, 31.1%)" stroke-width="1.5"></path><path d="M-87.6 672.26L198.37 690.55" stroke="hsl(0, 0%, 31.1%)" stroke-width="1.5"></path><path d="M-87.6 672.26L241.27 531.91" stroke="hsl(0, 0%, 31.1%)" stroke-width="1.5"></path><path d="M198.37 690.55L198.37 690.55" stroke="hsl(0, 0%, 31.1%)" stroke-width="1.5"></path><path d="M198.37 690.55L241.27 531.91" stroke="hsl(0, 0%, 31.1%)" stroke-width="1.5"></path><path d="M198.37 690.55L390.37 676.83" stroke="hsl(0, 0%, 31.1%)" stroke-width="1.5"></path><path d="M495.68 558.61L495.68 558.61" stroke="hsl(0, 0%, 31.1%)" stroke-width="1.5"></path><path d="M495.68 558.61L529.84 688.1" stroke="hsl(0, 0%, 31.1%)" stroke-width="1.5"></path><path d="M495.68 558.61L361 491.58" stroke="hsl(0, 0%, 31.1%)" stroke-width="1.5"></path><path d="M495.68 558.61L390.37 676.83" stroke="hsl(0, 0%, 31.1%)" stroke-width="1.5"></path><path d="M495.68 558.61L665.11 561.56" stroke="hsl(0, 0%, 31.1%)" stroke-width="1.5"></path><path d="M495.68 558.61L699.19 688.19" stroke="hsl(0, 0%, 31.1%)" stroke-width="1.5"></path><path d="M983.85 349.25L983.85 349.25" stroke="hsl(0, 0%, 31.1%)" stroke-width="1.5"></path><path d="M983.85 349.25L1004.32 252.95" stroke="hsl(0, 0%, 31.1%)" stroke-width="1.5"></path><path d="M983.85 349.25L1142.87 366.08" stroke="hsl(0, 0%, 31.1%)" stroke-width="1.5"></path><path d="M983.85 349.25L1093.4 509.17" stroke="hsl(0, 0%, 31.1%)" stroke-width="1.5"></path><path d="M983.85 349.25L1003.34 555.47" stroke="hsl(0, 0%, 31.1%)" stroke-width="1.5"></path><path d="M983.85 349.25L841.54 530.47" stroke="hsl(0, 0%, 31.1%)" stroke-width="1.5"></path><path d="M1156.36 193.23L1156.36 193.23" stroke="hsl(0, 0%, 31.1%)" stroke-width="1.5"></path><path d="M1156.36 193.23L1117.98 108.81" stroke="hsl(0, 0%, 31.1%)" stroke-width="1.5"></path><path d="M1156.36 193.23L1240.25 233.82" stroke="hsl(0, 0%, 31.1%)" stroke-width="1.5"></path><path d="M1156.36 193.23L1245.06 98.41" stroke="hsl(0, 0%, 31.1%)" stroke-width="1.5"></path><path d="M1156.36 193.23L1004.32 252.95" stroke="hsl(0, 0%, 31.1%)" stroke-width="1.5"></path><path d="M1156.36 193.23L1142.87 366.08" stroke="hsl(0, 0%, 31.1%)" stroke-width="1.5"></path><path d="M1156.36 193.23L1247.34 346.08" stroke="hsl(0, 0%, 31.1%)" stroke-width="1.5"></path><path d="M1576.17 410.38L1576.17 410.38" stroke="hsl(0, 0%, 31.1%)" stroke-width="1.5"></path><path d="M1576.17 410.38L1583.18 521.25" stroke="hsl(0, 0%, 31.1%)" stroke-width="1.5"></path><path d="M1576.17 410.38L1454.04 391.34" stroke="hsl(0, 0%, 31.1%)" stroke-width="1.5"></path><path d="M-83.64 496.31L-83.64 496.31" stroke="hsl(0, 0%, 31.1%)" stroke-width="1.5"></path><path d="M-83.64 496.31L88.75 502.77" stroke="hsl(0, 0%, 31.1%)" stroke-width="1.5"></path><path d="M88.75 502.77L88.75 502.77" stroke="hsl(0, 0%, 31.1%)" stroke-width="1.5"></path><path d="M88.75 502.77L241.27 531.91" stroke="hsl(0, 0%, 31.1%)" stroke-width="1.5"></path><path d="M88.75 502.77L198.37 690.55" stroke="hsl(0, 0%, 31.1%)" stroke-width="1.5"></path><path d="M88.75 502.77L361 491.58" stroke="hsl(0, 0%, 31.1%)" stroke-width="1.5"></path><path d="M241.27 531.91L241.27 531.91" stroke="hsl(0, 0%, 31.1%)" stroke-width="1.5"></path><path d="M241.27 531.91L361 491.58" stroke="hsl(0, 0%, 31.1%)" stroke-width="1.5"></path><path d="M241.27 531.91L390.37 676.83" stroke="hsl(0, 0%, 31.1%)" stroke-width="1.5"></path><path d="M361 491.58L361 491.58" stroke="hsl(0, 0%, 31.1%)" stroke-width="1.5"></path><path d="M361 491.58L390.37 676.83" stroke="hsl(0, 0%, 31.1%)" stroke-width="1.5"></path><path d="M361 491.58L198.37 690.55" stroke="hsl(0, 0%, 31.1%)" stroke-width="1.5"></path><path d="M361 491.58L529.84 688.1" stroke="hsl(0, 0%, 31.1%)" stroke-width="1.5"></path><path d="M390.37 676.83L390.37 676.83" stroke="hsl(0, 0%, 31.1%)" stroke-width="1.5"></path><path d="M390.37 676.83L529.84 688.1" stroke="hsl(0, 0%, 31.1%)" stroke-width="1.5"></path><path d="M529.84 688.1L529.84 688.1" stroke="hsl(0, 0%, 31.1%)" stroke-width="1.5"></path><path d="M529.84 688.1L699.19 688.19" stroke="hsl(0, 0%, 31.1%)" stroke-width="1.5"></path><path d="M529.84 688.1L665.11 561.56" stroke="hsl(0, 0%, 31.1%)" stroke-width="1.5"></path><path d="M670.32 385.41L670.32 385.41" stroke="hsl(0, 0%, 31.1%)" stroke-width="1.5"></path><path d="M670.32 385.41L665.11 561.56" stroke="hsl(0, 0%, 31.1%)" stroke-width="1.5"></path><path d="M670.32 385.41L841.54 530.47" stroke="hsl(0, 0%, 31.1%)" stroke-width="1.5"></path><path d="M670.32 385.41L495.68 558.61" stroke="hsl(0, 0%, 31.1%)" stroke-width="1.5"></path><path d="M670.32 385.41L699.19 688.19" stroke="hsl(0, 0%, 31.1%)" stroke-width="1.5"></path><path d="M665.11 561.56L665.11 561.56" stroke="hsl(0, 0%, 31.1%)" stroke-width="1.5"></path><path d="M665.11 561.56L699.19 688.19" stroke="hsl(0, 0%, 31.1%)" stroke-width="1.5"></path><path d="M665.11 561.56L841.54 530.47" stroke="hsl(0, 0%, 31.1%)" stroke-width="1.5"></path><path d="M665.11 561.56L816.63 677.01" stroke="hsl(0, 0%, 31.1%)" stroke-width="1.5"></path><path d="M699.19 688.19L699.19 688.19" stroke="hsl(0, 0%, 31.1%)" stroke-width="1.5"></path><path d="M699.19 688.19L816.63 677.01" stroke="hsl(0, 0%, 31.1%)" stroke-width="1.5"></path><path d="M841.54 530.47L841.54 530.47" stroke="hsl(0, 0%, 31.1%)" stroke-width="1.5"></path><path d="M841.54 530.47L816.63 677.01" stroke="hsl(0, 0%, 31.1%)" stroke-width="1.5"></path><path d="M841.54 530.47L1003.34 555.47" stroke="hsl(0, 0%, 31.1%)" stroke-width="1.5"></path><path d="M841.54 530.47L699.19 688.19" stroke="hsl(0, 0%, 31.1%)" stroke-width="1.5"></path><path d="M816.63 677.01L816.63 677.01" stroke="hsl(0, 0%, 31.1%)" stroke-width="1.5"></path><path d="M816.63 677.01L1004.67 699.99" stroke="hsl(0, 0%, 31.1%)" stroke-width="1.5"></path><path d="M816.63 677.01L1003.34 555.47" stroke="hsl(0, 0%, 31.1%)" stroke-width="1.5"></path><path d="M816.63 677.01L529.84 688.1" stroke="hsl(0, 0%, 31.1%)" stroke-width="1.5"></path><path d="M1004.32 252.95L1004.32 252.95" stroke="hsl(0, 0%, 31.1%)" stroke-width="1.5"></path><path d="M1004.32 252.95L1142.87 366.08" stroke="hsl(0, 0%, 31.1%)" stroke-width="1.5"></path><path d="M1004.32 252.95L1117.98 108.81" stroke="hsl(0, 0%, 31.1%)" stroke-width="1.5"></path><path d="M1004.32 252.95L1240.25 233.82" stroke="hsl(0, 0%, 31.1%)" stroke-width="1.5"></path><path d="M1004.32 252.95L1247.34 346.08" stroke="hsl(0, 0%, 31.1%)" stroke-width="1.5"></path><path d="M1003.34 555.47L1003.34 555.47" stroke="hsl(0, 0%, 31.1%)" stroke-width="1.5"></path><path d="M1003.34 555.47L1093.4 509.17" stroke="hsl(0, 0%, 31.1%)" stroke-width="1.5"></path><path d="M1003.34 555.47L1004.67 699.99" stroke="hsl(0, 0%, 31.1%)" stroke-width="1.5"></path><path d="M1004.67 699.99L1004.67 699.99" stroke="hsl(0, 0%, 31.1%)" stroke-width="1.5"></path><path d="M1004.67 699.99L1093.4 509.17" stroke="hsl(0, 0%, 31.1%)" stroke-width="1.5"></path><path d="M1004.67 699.99L841.54 530.47" stroke="hsl(0, 0%, 31.1%)" stroke-width="1.5"></path><path d="M1004.67 699.99L1258.03 702.17" stroke="hsl(0, 0%, 31.1%)" stroke-width="1.5"></path><path d="M1117.98 108.81L1117.98 108.81" stroke="hsl(0, 0%, 31.1%)" stroke-width="1.5"></path><path d="M1117.98 108.81L1245.06 98.41" stroke="hsl(0, 0%, 31.1%)" stroke-width="1.5"></path><path d="M1117.98 108.81L1240.25 233.82" stroke="hsl(0, 0%, 31.1%)" stroke-width="1.5"></path><path d="M1142.87 366.08L1142.87 366.08" stroke="hsl(0, 0%, 31.1%)" stroke-width="1.5"></path><path d="M1142.87 366.08L1247.34 346.08" stroke="hsl(0, 0%, 31.1%)" stroke-width="1.5"></path><path d="M1142.87 366.08L1093.4 509.17" stroke="hsl(0, 0%, 31.1%)" stroke-width="1.5"></path><path d="M1142.87 366.08L1240.25 233.82" stroke="hsl(0, 0%, 31.1%)" stroke-width="1.5"></path><path d="M1093.4 509.17L1093.4 509.17" stroke="hsl(0, 0%, 31.1%)" stroke-width="1.5"></path><path d="M1093.4 509.17L1276 540.08" stroke="hsl(0, 0%, 31.1%)" stroke-width="1.5"></path><path d="M1240.51 -42.77L1240.51 -42.77" stroke="hsl(0, 0%, 31.1%)" stroke-width="1.5"></path><path d="M1240.51 -42.77L1245.06 98.41" stroke="hsl(0, 0%, 31.1%)" stroke-width="1.5"></path><path d="M1245.06 98.41L1245.06 98.41" stroke="hsl(0, 0%, 31.1%)" stroke-width="1.5"></path><path d="M1245.06 98.41L1240.25 233.82" stroke="hsl(0, 0%, 31.1%)" stroke-width="1.5"></path><path d="M1240.25 233.82L1240.25 233.82" stroke="hsl(0, 0%, 31.1%)" stroke-width="1.5"></path><path d="M1240.25 233.82L1247.34 346.08" stroke="hsl(0, 0%, 31.1%)" stroke-width="1.5"></path><path d="M1247.34 346.08L1247.34 346.08" stroke="hsl(0, 0%, 31.1%)" stroke-width="1.5"></path><path d="M1276 540.08L1276 540.08" stroke="hsl(0, 0%, 31.1%)" stroke-width="1.5"></path><path d="M1276 540.08L1422.8 488.09" stroke="hsl(0, 0%, 31.1%)" stroke-width="1.5"></path><path d="M1276 540.08L1258.03 702.17" stroke="hsl(0, 0%, 31.1%)" stroke-width="1.5"></path><path d="M1276 540.08L1396.38 670.83" stroke="hsl(0, 0%, 31.1%)" stroke-width="1.5"></path><path d="M1276 540.08L1247.34 346.08" stroke="hsl(0, 0%, 31.1%)" stroke-width="1.5"></path><path d="M1258.03 702.17L1258.03 702.17" stroke="hsl(0, 0%, 31.1%)" stroke-width="1.5"></path><path d="M1258.03 702.17L1396.38 670.83" stroke="hsl(0, 0%, 31.1%)" stroke-width="1.5"></path><path d="M1258.03 702.17L1093.4 509.17" stroke="hsl(0, 0%, 31.1%)" stroke-width="1.5"></path><path d="M1258.03 702.17L1422.8 488.09" stroke="hsl(0, 0%, 31.1%)" stroke-width="1.5"></path><path d="M1408.4 -43.04L1408.4 -43.04" stroke="hsl(0, 0%, 31.1%)" stroke-width="1.5"></path><path d="M1408.4 -43.04L1403.27 55.73" stroke="hsl(0, 0%, 31.1%)" stroke-width="1.5"></path><path d="M1408.4 -43.04L1551.39 -109.66" stroke="hsl(0, 0%, 31.1%)" stroke-width="1.5"></path><path d="M1408.4 -43.04L1240.51 -42.77" stroke="hsl(0, 0%, 31.1%)" stroke-width="1.5"></path><path d="M1408.4 -43.04L1586.08 60.09" stroke="hsl(0, 0%, 31.1%)" stroke-width="1.5"></path><path d="M1408.4 -43.04L1245.06 98.41" stroke="hsl(0, 0%, 31.1%)" stroke-width="1.5"></path><path d="M1403.27 55.73L1403.27 55.73" stroke="hsl(0, 0%, 31.1%)" stroke-width="1.5"></path><path d="M1408.87 196.23L1408.87 196.23" stroke="hsl(0, 0%, 31.1%)" stroke-width="1.5"></path><path d="M1408.87 196.23L1403.27 55.73" stroke="hsl(0, 0%, 31.1%)" stroke-width="1.5"></path><path d="M1408.87 196.23L1551.82 210.38" stroke="hsl(0, 0%, 31.1%)" stroke-width="1.5"></path><path d="M1408.87 196.23L1240.25 233.82" stroke="hsl(0, 0%, 31.1%)" stroke-width="1.5"></path><path d="M1408.87 196.23L1245.06 98.41" stroke="hsl(0, 0%, 31.1%)" stroke-width="1.5"></path><path d="M1454.04 391.34L1454.04 391.34" stroke="hsl(0, 0%, 31.1%)" stroke-width="1.5"></path><path d="M1454.04 391.34L1422.8 488.09" stroke="hsl(0, 0%, 31.1%)" stroke-width="1.5"></path><path d="M1454.04 391.34L1583.18 521.25" stroke="hsl(0, 0%, 31.1%)" stroke-width="1.5"></path><path d="M1454.04 391.34L1408.87 196.23" stroke="hsl(0, 0%, 31.1%)" stroke-width="1.5"></path><path d="M1454.04 391.34L1551.82 210.38" stroke="hsl(0, 0%, 31.1%)" stroke-width="1.5"></path><path d="M1454.04 391.34L1247.34 346.08" stroke="hsl(0, 0%, 31.1%)" stroke-width="1.5"></path><path d="M1422.8 488.09L1422.8 488.09" stroke="hsl(0, 0%, 31.1%)" stroke-width="1.5"></path><path d="M1422.8 488.09L1583.18 521.25" stroke="hsl(0, 0%, 31.1%)" stroke-width="1.5"></path><path d="M1422.8 488.09L1576.17 410.38" stroke="hsl(0, 0%, 31.1%)" stroke-width="1.5"></path><path d="M1396.38 670.83L1396.38 670.83" stroke="hsl(0, 0%, 31.1%)" stroke-width="1.5"></path><path d="M1396.38 670.83L1543.92 651.1" stroke="hsl(0, 0%, 31.1%)" stroke-width="1.5"></path><path d="M1396.38 670.83L1422.8 488.09" stroke="hsl(0, 0%, 31.1%)" stroke-width="1.5"></path><path d="M1396.38 670.83L1583.18 521.25" stroke="hsl(0, 0%, 31.1%)" stroke-width="1.5"></path><path d="M1396.38 670.83L1454.04 391.34" stroke="hsl(0, 0%, 31.1%)" stroke-width="1.5"></path><path d="M1551.39 -109.66L1551.39 -109.66" stroke="hsl(0, 0%, 31.1%)" stroke-width="1.5"></path><path d="M1551.39 -109.66L1586.08 60.09" stroke="hsl(0, 0%, 31.1%)" stroke-width="1.5"></path><path d="M1551.39 -109.66L1403.27 55.73" stroke="hsl(0, 0%, 31.1%)" stroke-width="1.5"></path><path d="M1551.39 -109.66L1240.51 -42.77" stroke="hsl(0, 0%, 31.1%)" stroke-width="1.5"></path><path d="M1551.39 -109.66L1551.82 210.38" stroke="hsl(0, 0%, 31.1%)" stroke-width="1.5"></path><path d="M1586.08 60.09L1586.08 60.09" stroke="hsl(0, 0%, 31.1%)" stroke-width="1.5"></path><path d="M1586.08 60.09L1551.82 210.38" stroke="hsl(0, 0%, 31.1%)" stroke-width="1.5"></path><path d="M1551.82 210.38L1551.82 210.38" stroke="hsl(0, 0%, 31.1%)" stroke-width="1.5"></path><path d="M1551.82 210.38L1576.17 410.38" stroke="hsl(0, 0%, 31.1%)" stroke-width="1.5"></path><path d="M1551.82 210.38L1403.27 55.73" stroke="hsl(0, 0%, 31.1%)" stroke-width="1.5"></path><path d="M1551.82 210.38L1408.4 -43.04" stroke="hsl(0, 0%, 31.1%)" stroke-width="1.5"></path><path d="M1583.18 521.25L1583.18 521.25" stroke="hsl(0, 0%, 31.1%)" stroke-width="1.5"></path><path d="M1583.18 521.25L1543.92 651.1" stroke="hsl(0, 0%, 31.1%)" stroke-width="1.5"></path><path d="M1543.92 651.1L1543.92 651.1" stroke="hsl(0, 0%, 31.1%)" stroke-width="1.5"></path><path d="M1543.92 651.1L1422.8 488.09" stroke="hsl(0, 0%, 31.1%)" stroke-width="1.5"></path><path d="M1543.92 651.1L1576.17 410.38" stroke="hsl(0, 0%, 31.1%)" stroke-width="1.5"></path><path d="M1543.92 651.1L1454.04 391.34" stroke="hsl(0, 0%, 31.1%)" stroke-width="1.5"></path><circle r="25" cx="-87.6" cy="672.26" fill="url(&quot;#SvgjsRadialGradient1019&quot;)"></circle><circle r="25" cx="198.37" cy="690.55" fill="url(&quot;#SvgjsRadialGradient1019&quot;)"></circle><circle r="25" cx="495.68" cy="558.61" fill="url(&quot;#SvgjsRadialGradient1019&quot;)"></circle><circle r="25" cx="983.85" cy="349.25" fill="url(&quot;#SvgjsRadialGradient1019&quot;)"></circle><circle r="25" cx="1156.36" cy="193.23" fill="url(&quot;#SvgjsRadialGradient1019&quot;)"></circle><circle r="25" cx="1576.17" cy="410.38" fill="url(&quot;#SvgjsRadialGradient1019&quot;)"></circle><circle r="5" cx="-83.64" cy="496.31" fill="#9e9e9e"></circle><circle r="5" cx="88.75" cy="502.77" fill="#9e9e9e"></circle><circle r="5" cx="241.27" cy="531.91" fill="#9e9e9e"></circle><circle r="5" cx="361" cy="491.58" fill="#9e9e9e"></circle><circle r="5" cx="390.37" cy="676.83" fill="#9e9e9e"></circle><circle r="5" cx="529.84" cy="688.1" fill="#9e9e9e"></circle><circle r="5" cx="670.32" cy="385.41" fill="#9e9e9e"></circle><circle r="5" cx="665.11" cy="561.56" fill="#9e9e9e"></circle><circle r="5" cx="699.19" cy="688.19" fill="#9e9e9e"></circle><circle r="5" cx="841.54" cy="530.47" fill="#9e9e9e"></circle><circle r="5" cx="816.63" cy="677.01" fill="#9e9e9e"></circle><circle r="5" cx="1004.32" cy="252.95" fill="#9e9e9e"></circle><circle r="5" cx="1003.34" cy="555.47" fill="#9e9e9e"></circle><circle r="5" cx="1004.67" cy="699.99" fill="#9e9e9e"></circle><circle r="5" cx="1117.98" cy="108.81" fill="#9e9e9e"></circle><circle r="5" cx="1142.87" cy="366.08" fill="#9e9e9e"></circle><circle r="5" cx="1093.4" cy="509.17" fill="#9e9e9e"></circle><circle r="5" cx="1240.51" cy="-42.77" fill="#9e9e9e"></circle><circle r="5" cx="1245.06" cy="98.41" fill="#9e9e9e"></circle><circle r="5" cx="1240.25" cy="233.82" fill="#9e9e9e"></circle><circle r="5" cx="1247.34" cy="346.08" fill="#9e9e9e"></circle><circle r="5" cx="1276" cy="540.08" fill="#9e9e9e"></circle><circle r="5" cx="1258.03" cy="702.17" fill="#9e9e9e"></circle><circle r="5" cx="1408.4" cy="-43.04" fill="#9e9e9e"></circle><circle r="5" cx="1403.27" cy="55.73" fill="#9e9e9e"></circle><circle r="5" cx="1408.87" cy="196.23" fill="#9e9e9e"></circle><circle r="5" cx="1454.04" cy="391.34" fill="#9e9e9e"></circle><circle r="5" cx="1422.8" cy="488.09" fill="#9e9e9e"></circle><circle r="5" cx="1396.38" cy="670.83" fill="#9e9e9e"></circle><circle r="5" cx="1551.39" cy="-109.66" fill="#9e9e9e"></circle><circle r="5" cx="1586.08" cy="60.09" fill="#9e9e9e"></circle><circle r="5" cx="1551.82" cy="210.38" fill="#9e9e9e"></circle><circle r="5" cx="1583.18" cy="521.25" fill="#9e9e9e"></circle><circle r="5" cx="1543.92" cy="651.1" fill="#9e9e9e"></circle></g><defs><mask id="SvgjsMask1018"><rect width="1440" height="560" fill="#ffffff"></rect></mask><radialGradient id="SvgjsRadialGradient1019"><stop stop-color="#ffffff" offset="0.1"></stop><stop stop-color="rgba(61, 61, 61, 1)" offset="0.2"></stop><stop stop-color="rgba(61, 61, 61, 0)" offset="1"></stop></radialGradient></defs></svg>